<svg width="176" height="32" viewBox="0 0 176 32" fill="none" xmlns="http://www.w3.org/2000/svg">
  <path
    d="M0.313477 0.592163V31.4105H27.3339V5.68241H5.40744V26.3202H22.2399V10.7726H10.5014V21.23H17.1459V15.3041H14.3219V16.856H15.5954V19.678H12.0545V12.3221H20.6893V24.7683H6.96054V7.23183H25.7833V29.8585H1.86658V2.14159H30.8773V31.4105H32.4278V0.592163H0.313477Z"
    fill="url(#paint0_linear_1950_24411)" />
  <path
    d="M43.1441 8.28088H49.7887C51.535 8.28088 51.7078 8.28088 52.3229 8.3266C53.7744 8.41805 54.9081 8.99718 55.5232 9.94715C56.0646 10.8031 56.2603 11.7988 56.2603 13.6734C56.2603 16.5436 55.4978 17.9559 53.6015 18.4868C52.9381 18.6951 52.9381 18.6951 49.959 18.7408H46.291V23.7167H43.1416V8.28088H43.1441ZM49.837 16.1982C52.6178 16.1982 53.0626 15.8502 53.0626 13.6302C53.0626 11.9182 52.8644 11.2934 52.2263 10.9682C51.7841 10.7828 51.4892 10.7371 50.1598 10.7371H46.2961V16.2007H49.837V16.1982Z"
    fill="#272154" />
  <path
    d="M77.404 23.7194H74.3029V15.2941C74.3029 14.6235 74.3512 13.0944 74.4758 10.7347H74.3766C73.2684 13.9986 73.2201 14.1612 72.8769 15.0172L69.2598 23.7194H66.4281L62.7856 15.0858C62.5161 14.4152 61.9976 12.9801 61.235 10.8033H61.1359C61.3087 14.0444 61.3316 14.3212 61.3316 15.2941V23.7194H58.2305V8.28101H63.3016L66.2298 15.4338C66.4993 16.1272 66.8704 17.1 67.755 19.7163H67.8541L68.4438 18.0043C68.8378 16.8003 69.1327 15.9443 69.3284 15.4592L72.2338 8.28355H77.4015V23.7194H77.404Z"
    fill="#272154" />
  <path
    d="M101.313 18.2124V18.7458C101.313 21.0598 101.066 21.9158 100.181 22.7032C99.6654 23.1655 98.8037 23.5592 97.8911 23.7218C97.3751 23.7904 95.9212 23.8615 94.4697 23.8615C91.6381 23.8615 90.8755 23.7446 89.7927 23.168C88.3641 22.4518 87.749 21.2935 87.5761 19.0938C87.5024 18.215 87.4541 16.315 87.4541 14.9053C87.4541 11.6871 87.7744 10.5085 88.8827 9.51278C90.1129 8.40279 91.3432 8.14624 95.3315 8.14624C97.9394 8.14624 98.974 8.35452 99.8103 9.02509C100.499 9.58136 100.919 10.3916 101.066 11.5245C101.114 11.8953 101.14 12.3576 101.165 13.4219H98.0386C97.9903 10.9454 97.6929 10.6914 94.8892 10.6914C92.7972 10.6914 91.8872 10.8539 91.394 11.2934C90.9746 11.6871 90.8043 12.2433 90.7535 13.4219C90.7281 13.8156 90.7281 13.8156 90.7281 15.9213C90.7281 20.9912 90.9492 21.3138 94.4697 21.3138C97.67 21.3138 98.2114 20.943 98.2114 18.8601C98.2114 18.7204 98.2114 18.5121 98.186 18.2124H101.313Z"
    fill="#272154" />
  <path
    d="M112.561 13.6734C113.422 14.438 113.743 15.5937 113.743 18.0474C113.743 22.8607 112.807 23.8564 108.328 23.8564C105.621 23.8564 104.317 23.4627 103.628 22.3985C103.062 21.5425 102.889 20.5468 102.889 17.9077C102.889 15.548 103.234 14.3897 104.119 13.648C104.93 12.9775 105.964 12.7692 108.402 12.7692C110.741 12.7717 111.798 13.0029 112.561 13.6734ZM105.718 18.2125C105.718 21.3824 106.038 21.8219 108.278 21.8219C110.591 21.8219 110.911 21.3596 110.911 18.0956C110.911 15.2482 110.565 14.8088 108.303 14.8088C106.064 14.8088 105.718 15.2482 105.718 18.2125Z"
    fill="#272154" />
  <path
    d="M119.574 17.3082C119.574 20.3867 119.18 21.8447 118.123 22.7235C117.286 23.417 116.277 23.7649 114.849 23.7878V21.8193C115.685 21.7507 116.153 21.4256 116.425 20.7093C116.697 19.9676 116.745 19.391 116.745 17.0516V12.9088H126.442V23.7167H123.661V14.8748H119.577V17.3082H119.574Z"
    fill="#272154" />
  <path
    d="M133.628 17.2853C133.677 15.7816 133.801 15.1796 134.144 14.509C134.833 13.1907 136.041 12.7742 139.116 12.7742C141.455 12.7742 142.512 13.0053 143.275 13.6759C144.137 14.4404 144.457 15.6216 144.457 18.0498C144.457 22.8632 143.522 23.8589 139.066 23.8589C136.064 23.8589 134.734 23.3738 134.119 22.0301C133.773 21.3138 133.7 20.8032 133.626 19.2513H132.002V23.7192H129.17V12.9113H132.002V17.2853H133.628ZM136.435 18.2124C136.435 21.3824 136.755 21.8218 138.994 21.8218C141.307 21.8218 141.628 21.3595 141.628 18.0956C141.628 15.2482 141.282 14.8087 139.02 14.8087C136.78 14.8087 136.435 15.2482 136.435 18.2124Z"
    fill="#272154" />
  <path
    d="M159.815 12.9114H162.595V23.7192H146.744V12.9114H149.576V21.7533H153.267V12.9114H156.098V21.7533H159.815V12.9114Z"
    fill="#272154" />
  <path
    d="M168.134 19.2539V23.7218H165.303V12.9139H168.134V17.2879H172.885V12.9139H175.666V23.7218H172.885V19.2539H168.134Z"
    fill="#272154" />
  <defs>
    <linearGradient id="paint0_linear_1950_24411" x1="16.3712" y1="0.647993" x2="16.3712" y2="31.2484"
      gradientUnits="userSpaceOnUse">
      <stop stop-color="#36A9E1" />
      <stop offset="0.5" stop-color="#3A5BA7" />
      <stop offset="1" stop-color="#5B2D87" />
    </linearGradient>
  </defs>
</svg>